<?xml version="1.0" standalone="no"?>
<!DOCTYPE svg PUBLIC "-//W3C//DTD SVG 20010904//EN"
 "http://www.w3.org/TR/2001/REC-SVG-20010904/DTD/svg10.dtd">
<svg version="1.0" xmlns="http://www.w3.org/2000/svg"
 width="1024.000000pt" height="1024.000000pt" viewBox="0 0 1024.000000 1024.000000"
 preserveAspectRatio="xMidYMid meet">
<metadata>
Created by potrace 1.11, written by Peter Selinger 2001-2013
</metadata>
<g transform="translate(0.000000,1024.000000) scale(0.100000,-0.100000)"
fill="#000000" stroke="none">
<path d="M0 5120 l0 -5120 3633 3 c3971 3 3656 -1 3957 57 864 169 1618 674
2107 1410 279 421 446 872 520 1407 17 120 18 268 18 2278 0 2369 4 2212 -61
2532 -252 1242 -1250 2239 -2492 2488 -322 64 24 59 -4014 62 l-3668 3 0
-5120z m4307 3741 c73 -34 114 -122 93 -200 -31 -114 -215 -225 -395 -238 -91
-6 -175 5 -356 47 -161 38 -230 39 -265 5 -82 -82 -130 -348 -141 -775 -9
-397 26 -995 107 -1788 39 -390 40 -406 25 -459 -21 -72 -89 -145 -184 -199
-39 -21 -71 -42 -71 -46 0 -4 15 -15 33 -24 67 -34 158 -106 186 -148 55 -80
56 -96 11 -529 -120 -1170 -140 -1936 -61 -2322 39 -188 92 -275 168 -275 21
0 88 12 148 25 201 47 259 56 355 55 147 0 264 -40 360 -123 101 -88 114 -196
31 -278 -72 -72 -148 -72 -254 1 -95 64 -119 64 -384 6 -193 -43 -305 -47
-404 -17 -191 60 -312 241 -373 556 -36 187 -41 285 -41 765 1 526 18 816 90
1525 40 393 39 365 22 365 -7 0 -45 16 -86 35 -40 19 -76 35 -81 35 -5 0 -11
-19 -15 -42 -10 -62 -80 -351 -121 -503 -177 -648 -504 -1547 -940 -2584 -50
-121 -79 -175 -105 -201 -83 -85 -226 -64 -279 40 -36 70 -29 99 91 382 448
1062 804 2072 959 2723 83 347 115 602 106 828 -29 692 -271 1666 -756 3031
-47 132 -47 162 -4 228 48 74 151 99 229 55 49 -28 77 -68 108 -160 14 -39 66
-189 117 -332 353 -1005 599 -1998 650 -2629 5 -60 11 -110 13 -112 3 -4 117
43 125 51 1 1 -13 159 -32 351 -75 740 -90 997 -91 1539 0 416 3 509 18 615
60 426 191 645 422 705 106 27 207 18 450 -41 58 -14 130 -24 171 -24 66 0 76
3 125 36 30 20 65 42 79 50 35 19 98 17 147 -5z m2978 -107 c1370 -5 1452 -6
1491 -24 143 -63 133 -277 -16 -326 -14 -4 -379 -7 -812 -5 -434 2 -788 2
-788 0 0 -2 -7 -1556 -15 -3453 -14 -3297 -16 -3452 -33 -3485 -66 -128 -243
-134 -311 -11 l-24 44 12 3448 c8 1897 11 3452 8 3455 -4 3 -352 8 -774 10
-473 3 -781 8 -801 15 -169 52 -160 295 14 337 22 6 159 8 319 5 154 -2 933
-6 1730 -10z"/>
</g>
</svg>
